<svg width="45" height="45" viewBox="0 0 45 45" fill="none" xmlns="http://www.w3.org/2000/svg">
<path fill-rule="evenodd" clip-rule="evenodd" d="M39.375 12.6562V39.375C39.375 40.8668 38.7824 42.2976 37.7275 43.3525C36.6726 44.4074 35.2418 45 33.75 45H30.9375V42.1875H33.75C34.4959 42.1875 35.2113 41.8912 35.7387 41.3637C36.2662 40.8363 36.5625 40.1209 36.5625 39.375V12.6562H30.9375C29.8186 12.6562 28.7456 12.2118 27.9544 11.4206C27.1632 10.6294 26.7188 9.55638 26.7188 8.4375V2.8125H11.25C10.5041 2.8125 9.78871 3.10882 9.26126 3.63626C8.73382 4.16371 8.4375 4.87908 8.4375 5.625V30.9375H5.625V5.625C5.625 4.13316 6.21763 2.70242 7.27252 1.64752C8.32742 0.592632 9.75816 0 11.25 0L26.7188 0L39.375 12.6562ZM7.24219 42.7556H2.20781V39.7378H6.94688V38.0334H2.20781V35.1506H7.24219V33.3281H0V44.5753H7.24219V42.7556ZM17.7469 33.3281H15.2353L12.9206 37.3753H12.8194L10.4794 33.3281H7.86094L11.3119 38.9053L7.82719 44.5753H10.2487L12.6478 40.5956H12.7463L15.1369 44.5753H17.6906L14.1637 38.9728L17.7469 33.3281ZM20.6297 42.7556H25.6641V44.5753H18.4163V33.3281H25.6612V35.1506H20.6269V38.0334H25.3631V39.7378H20.6269L20.6297 42.7556Z" fill="black"/>
</svg>
