<svg width="48" height="48" viewBox="0 0 48 48" fill="none" xmlns="http://www.w3.org/2000/svg">
<path d="M7.2 21C9.8475 21 12 18.3094 12 15C12 11.6906 9.8475 9 7.2 9C4.5525 9 2.4 11.6906 2.4 15C2.4 18.3094 4.5525 21 7.2 21ZM40.8 21C43.4475 21 45.6 18.3094 45.6 15C45.6 11.6906 43.4475 9 40.8 9C38.1525 9 36 11.6906 36 15C36 18.3094 38.1525 21 40.8 21ZM43.2 24H38.4C37.08 24 35.8875 24.6656 35.0175 25.7438C38.04 27.8156 40.185 31.5562 40.65 36H45.6C46.9275 36 48 34.6594 48 33V30C48 26.6906 45.8475 24 43.2 24ZM24 24C28.6425 24 32.4 19.3031 32.4 13.5C32.4 7.69687 28.6425 3 24 3C19.3575 3 15.6 7.69687 15.6 13.5C15.6 19.3031 19.3575 24 24 24ZM29.76 27H29.1375C27.5775 27.9375 25.845 28.5 24 28.5C22.155 28.5 20.43 27.9375 18.8625 27H18.24C13.47 27 9.6 31.8375 9.6 37.8V40.5C9.6 42.9844 11.2125 45 13.2 45H34.8C36.7875 45 38.4 42.9844 38.4 40.5V37.8C38.4 31.8375 34.53 27 29.76 27ZM12.9825 25.7438C12.1125 24.6656 10.92 24 9.6 24H4.8C2.1525 24 0 26.6906 0 30V33C0 34.6594 1.0725 36 2.4 36H7.3425C7.815 31.5562 9.96 27.8156 12.9825 25.7438Z" fill="black"/>
</svg>
