<svg width="60" height="60" viewBox="0 0 60 60" fill="none" xmlns="http://www.w3.org/2000/svg">
<g clip-path="url(#clip0_81_38)">
<path d="M17.8125 26.25C17.0666 26.25 16.3512 26.5463 15.8238 27.0738C15.2963 27.6012 15 28.3166 15 29.0625C15 29.8084 15.2963 30.5238 15.8238 31.0512C16.3512 31.5787 17.0666 31.875 17.8125 31.875H34.6875C35.4334 31.875 36.1488 31.5787 36.6762 31.0512C37.2037 30.5238 37.5 29.8084 37.5 29.0625C37.5 28.3166 37.2037 27.6012 36.6762 27.0738C36.1488 26.5463 35.4334 26.25 34.6875 26.25H17.8125ZM18.75 17.8125C18.75 17.0666 19.0463 16.3512 19.5738 15.8238C20.1012 15.2963 20.8166 15 21.5625 15H42.1875C42.9334 15 43.6488 15.2963 44.1762 15.8238C44.7037 16.3512 45 17.0666 45 17.8125C45 18.5584 44.7037 19.2738 44.1762 19.8012C43.6488 20.3287 42.9334 20.625 42.1875 20.625H21.5625C20.8166 20.625 20.1012 20.3287 19.5738 19.8012C19.0463 19.2738 18.75 18.5584 18.75 17.8125ZM25.3125 37.5C24.5666 37.5 23.8512 37.7963 23.3238 38.3238C22.7963 38.8512 22.5 39.5666 22.5 40.3125C22.5 41.0584 22.7963 41.7738 23.3238 42.3012C23.8512 42.8287 24.5666 43.125 25.3125 43.125H42.1875C42.9334 43.125 43.6488 42.8287 44.1762 42.3012C44.7037 41.7738 45 41.0584 45 40.3125C45 39.5666 44.7037 38.8512 44.1762 38.3238C43.6488 37.7963 42.9334 37.5 42.1875 37.5H25.3125Z" fill="black"/>
<path d="M0 6.5625C0 2.94 2.94 0 6.5625 0H53.4375C57.06 0 60 2.94 60 6.5625V53.4375C60 55.178 59.3086 56.8472 58.0779 58.0779C56.8472 59.3086 55.178 60 53.4375 60H6.5625C4.82202 60 3.15282 59.3086 1.92211 58.0779C0.691404 56.8472 0 55.178 0 53.4375L0 6.5625ZM6.5625 5.625C6.31386 5.625 6.0754 5.72377 5.89959 5.89959C5.72377 6.0754 5.625 6.31386 5.625 6.5625V53.4375C5.625 53.955 6.045 54.375 6.5625 54.375H53.4375C53.6861 54.375 53.9246 54.2762 54.1004 54.1004C54.2762 53.9246 54.375 53.6861 54.375 53.4375V6.5625C54.375 6.31386 54.2762 6.0754 54.1004 5.89959C53.9246 5.72377 53.6861 5.625 53.4375 5.625H6.5625Z" fill="black"/>
</g>
<defs>
<clipPath id="clip0_81_38">
<rect width="60" height="60" fill="white"/>
</clipPath>
</defs>
</svg>
