<svg width="80" height="80" viewBox="0 0 80 80" fill="none" xmlns="http://www.w3.org/2000/svg">
<path d="M52.6323 52C49.8023 50.8675 48.6723 47.755 48.6723 47.755C48.6723 47.755 47.3973 48.46 47.3973 46.48C47.3973 44.5 48.6723 47.755 49.9473 40.11C49.9473 40.11 53.4798 39.1175 52.7723 30.91H51.9223C51.9223 30.91 54.0473 22.135 51.9223 19.16C49.7973 16.19 48.9523 14.21 44.2798 12.7925C39.6073 11.375 41.3098 11.6575 37.9123 11.8025C34.5123 11.9475 31.6823 13.785 31.6823 14.7775C31.6823 14.7775 29.5573 14.9175 28.7123 15.7675C27.8623 16.6175 26.4473 20.5775 26.4473 21.5675C26.4473 22.5575 27.1548 29.2175 27.8623 30.63L27.0198 30.915C26.3098 39.1225 29.8448 40.115 29.8448 40.115C31.1198 47.76 32.3948 44.505 32.3948 46.485C32.3948 48.465 31.1198 47.76 31.1198 47.76C31.1198 47.76 29.9898 50.8725 27.1598 52.005C24.3298 53.135 8.61984 59.22 7.34234 60.495C6.06234 61.77 6.20734 67.715 6.20734 67.715H73.5748C73.5748 67.715 73.7248 61.7725 72.4448 60.495C71.1698 59.22 55.4573 53.135 52.6273 52.005L52.6323 52ZM21.4573 51.57C21.2073 51.12 21.0873 50.795 21.0873 50.795C21.0873 50.795 20.0073 51.395 20.0073 49.715C20.0073 48.035 21.0873 50.795 22.1673 44.315C22.1673 44.315 25.1673 43.4775 24.5673 36.52H23.8423C23.8423 36.52 24.2023 35.045 24.4373 33.185C24.4268 32.354 24.4577 31.5229 24.5298 30.695L24.6248 29.63C24.5748 28.4 24.3573 27.28 23.8448 26.565C22.0448 24.0475 21.3248 22.365 17.3698 21.165C13.4098 19.965 14.8448 20.205 11.9698 20.3275C9.08984 20.4525 6.68984 22.0075 6.68984 22.8525C6.68984 22.8525 4.88984 22.97 4.16984 23.69C3.49484 24.365 2.40734 27.345 2.27734 28.4025V29.1025C2.39734 30.7375 2.92734 35.2275 3.45234 36.285L2.73734 36.525C2.13734 43.48 5.13734 44.32 5.13734 44.32C6.21234 50.795 7.29484 48.04 7.29484 49.72C7.29484 51.4 6.21484 50.795 6.21484 50.795C6.21484 50.795 5.25734 53.44 2.85734 54.395L2.27734 54.625V67.71H3.71484C3.63984 64.515 3.90734 60.3925 5.57984 58.725C6.47234 57.8375 9.38984 56.375 21.4623 51.57H21.4573ZM77.2823 28.93C77.1823 27.985 76.9648 27.1425 76.5523 26.565C74.7573 24.045 74.0348 22.365 70.0773 21.165C66.1198 19.965 67.5598 20.205 64.6773 20.3275C61.8023 20.4525 59.4023 22.0075 59.4023 22.8525C59.4023 22.8525 57.6023 22.97 56.8823 23.69C56.2073 24.37 55.1073 27.37 54.9873 28.415H55.0698L55.2698 30.7C55.3198 31.275 55.3248 31.7875 55.3373 32.31C55.5623 33.975 55.8623 35.685 56.1623 36.285L55.4473 36.5225C54.8473 43.4775 57.8473 44.3175 57.8473 44.3175C58.9273 50.7925 60.0048 48.0375 60.0048 49.7175C60.0048 51.3975 58.9298 50.7925 58.9298 50.7925C58.9298 50.7925 58.7948 51.15 58.5198 51.6425C70.4448 56.3925 73.3373 57.8425 74.2198 58.725C75.8948 60.395 76.1548 64.515 76.0823 67.7125H77.2823V54.45L77.1573 54.395C74.7573 53.4375 73.7973 50.795 73.7973 50.795C73.7973 50.795 72.7148 51.395 72.7148 49.72C72.7148 48.045 73.7973 50.795 74.8748 44.32C74.8748 44.32 76.8848 43.745 77.2823 39.72V36.65C77.2823 36.605 77.2823 36.5675 77.2748 36.525H76.5499C76.5499 36.525 77.0898 34.3 77.2823 31.87V28.93Z" fill="black"/>
</svg>
