<svg width="48" height="48" viewBox="0 0 48 48" fill="none" xmlns="http://www.w3.org/2000/svg">
<path d="M39.862 21.6272V10.6056C39.862 9.32685 39.1495 8.2373 38.3134 8.2373H30.7868H18.8007H16.0646C16.4261 8.47419 16.7975 8.69518 17.159 8.93207C15.538 6.26382 13.9482 3.54776 12.2964 0.926515C11.5635 -0.242053 10.4584 0.0266688 9.48827 0.0266688H4.84219H1.54852C0.712403 0.0266688 0 1.11627 0 2.39499V17.0956V40.3071V45.5966C0 46.8754 0.712434 47.9649 1.54852 47.9649H5.20317H13.9894H24.5615H33.7603C35.2468 47.9649 36.7441 48.0439 38.241 47.9649H38.303C39.1392 47.9649 39.8516 46.8753 39.8516 45.5966V45.2807C39.8516 44.0491 39.1391 42.8493 38.303 42.9124C37.4669 42.9755 36.7545 43.9543 36.7545 45.2807V45.5966C37.2708 44.8069 37.7871 44.0173 38.303 43.2283H34.6484H25.8622H15.2901H6.09126C4.60473 43.2283 3.09699 43.0863 1.61056 43.2283H1.54852L3.09704 45.5966V31.0852V7.74671V2.39358C2.58072 3.18324 2.06442 3.97288 1.54852 4.7619H9.87005H11.078C10.7166 4.525 10.3451 4.30402 9.98368 4.06712C11.4602 6.4986 12.9363 8.93054 14.4232 11.3778C14.5989 11.6778 14.7742 11.9937 14.9703 12.2777C15.3422 12.8145 15.7756 12.9565 16.2404 12.9725C16.8391 12.9884 17.4379 12.9725 18.0366 12.9725H33.6878H38.3027L36.7542 10.6041V21.6257C36.7542 22.8573 37.4666 24.0572 38.3027 23.994C39.16 23.9316 39.8621 22.9528 39.8621 21.6263L39.862 21.6272Z" fill="black"/>
<path d="M2.88993 46.5766C5.04769 39.6448 7.20536 32.697 9.36312 25.7658C9.67291 24.787 9.9723 23.8076 10.2821 22.8288C9.83823 23.2236 9.39435 23.6185 8.94003 23.9974H12.6671H21.6182H32.4588H41.8333C43.351 23.9974 44.8892 24.1235 46.4069 23.9974H46.4794C46.0355 22.8129 45.5916 21.629 45.1373 20.4287C42.7523 27.3446 40.3676 34.2606 37.9825 41.1767C37.6419 42.1555 37.3113 43.1191 36.9707 44.0979C36.5785 45.2347 36.785 46.672 37.5283 47.3349C38.2303 47.9666 39.2525 47.6189 39.6447 46.4822C42.0298 39.5662 44.4145 32.6502 46.7995 25.7341C47.1401 24.7553 47.4707 23.7917 47.8113 22.8129C48.3481 21.2495 47.6873 19.2442 46.4693 19.2442H42.7422H33.7911H22.9506H13.576C12.0583 19.2442 10.5202 19.1652 9.00238 19.2442H8.92993C8.42402 19.2442 7.82528 19.6862 7.58787 20.4128C5.43011 27.3446 3.27244 34.2924 1.11468 41.2235C0.804889 42.2023 0.505502 43.1817 0.195705 44.1605C-0.165712 45.3132 -0.0108185 46.7186 0.753248 47.3975C1.44447 48.0292 2.52832 47.7452 2.88981 46.5766L2.88993 46.5766Z" fill="black"/>
</svg>
