<svg width="20" height="20" viewBox="0 0 20 20" fill="none" xmlns="http://www.w3.org/2000/svg">
<path d="M11.0577 3.05734C11.3077 2.80738 11.6468 2.66696 12.0003 2.66696C12.3539 2.66696 12.693 2.80738 12.943 3.05734L18.943 9.05734C19.193 9.30738 19.3334 9.64646 19.3334 10C19.3334 10.3536 19.193 10.6926 18.943 10.9427L12.943 16.9427C12.6915 17.1856 12.3547 17.3199 12.0051 17.3169C11.6555 17.3139 11.3211 17.1736 11.0739 16.9264C10.8267 16.6792 10.6865 16.3448 10.6834 15.9952C10.6804 15.6456 10.8148 15.3088 11.0577 15.0573L14.667 11.3333H2.00033C1.6467 11.3333 1.30757 11.1929 1.05752 10.9428C0.807468 10.6928 0.666992 10.3536 0.666992 10C0.666992 9.64639 0.807468 9.30725 1.05752 9.0572C1.30757 8.80715 1.6467 8.66668 2.00033 8.66668H14.667L11.0577 4.94268C10.8077 4.69264 10.6673 4.35356 10.6673 4.00001C10.6673 3.64646 10.8077 3.30738 11.0577 3.05734Z" fill="#0038FB"/>
</svg>
