<svg width="48" height="48" viewBox="0 0 48 48" fill="none" xmlns="http://www.w3.org/2000/svg">
<g clip-path="url(#clip0_73_405)">
<path fill-rule="evenodd" clip-rule="evenodd" d="M14.832 6.00001C14.2814 7.26158 13.9981 8.62352 14 10C14 11.0609 14.4214 12.0783 15.1716 12.8284C15.9217 13.5786 16.9391 14 18 14H30C31.0609 14 32.0783 13.5786 32.8284 12.8284C33.5786 12.0783 34 11.0609 34 10C34 8.57801 33.704 7.22401 33.168 6.00001H36C37.0609 6.00001 38.0783 6.42143 38.8284 7.17158C39.5786 7.92172 40 8.93914 40 10V40C40 41.0609 39.5786 42.0783 38.8284 42.8284C38.0783 43.5786 37.0609 44 36 44H12C10.9391 44 9.92172 43.5786 9.17157 42.8284C8.42143 42.0783 8 41.0609 8 40V10C8 8.93914 8.42143 7.92172 9.17157 7.17158C9.92172 6.42143 10.9391 6.00001 12 6.00001H14.832ZM24 28H18C17.4696 28 16.9609 28.2107 16.5858 28.5858C16.2107 28.9609 16 29.4696 16 30C16 30.5304 16.2107 31.0391 16.5858 31.4142C16.9609 31.7893 17.4696 32 18 32H24C24.5304 32 25.0391 31.7893 25.4142 31.4142C25.7893 31.0391 26 30.5304 26 30C26 29.4696 25.7893 28.9609 25.4142 28.5858C25.0391 28.2107 24.5304 28 24 28ZM30 20H18C17.4902 20.0006 16.9999 20.1958 16.6293 20.5457C16.2586 20.8956 16.0355 21.3739 16.0057 21.8828C15.9758 22.3917 16.1413 22.8928 16.4685 23.2837C16.7957 23.6746 17.2598 23.9258 17.766 23.986L18 24H30C30.5304 24 31.0391 23.7893 31.4142 23.4142C31.7893 23.0391 32 22.5304 32 22C32 21.4696 31.7893 20.9609 31.4142 20.5858C31.0391 20.2107 30.5304 20 30 20ZM24 4.00001C24.8444 3.99876 25.6794 4.17634 26.4502 4.52106C27.221 4.86578 27.91 5.36982 28.472 6.00001C29.328 6.95601 29.88 8.18601 29.982 9.54401L30 10H18C18 8.55001 18.514 7.22001 19.37 6.18401L19.528 6.00001C20.628 4.77201 22.224 4.00001 24 4.00001Z" fill="black"/>
</g>
<defs>
<clipPath id="clip0_73_405">
<rect width="48" height="48" fill="white"/>
</clipPath>
</defs>
</svg>
