<svg width="80" height="80" viewBox="0 0 80 80" fill="none" xmlns="http://www.w3.org/2000/svg">
<g clip-path="url(#clip0_81_61)">
<path fill-rule="evenodd" clip-rule="evenodd" d="M31.4284 0C29.9129 0 28.4595 0.602039 27.3878 1.67368C26.3162 2.74531 25.7141 4.19876 25.7141 5.71429V8.60571C25.7232 10.1153 26.3292 11.5599 27.3999 12.6242C28.4706 13.6884 29.9188 14.2857 31.4284 14.2857H48.5713C50.0868 14.2857 51.5403 13.6837 52.6119 12.612C53.6835 11.5404 54.2856 10.087 54.2856 8.57143V5.71429C54.2856 4.19876 53.6835 2.74531 52.6119 1.67368C51.5403 0.602039 50.0868 0 48.5713 0L31.4284 0ZM19.9999 5.71429H17.1427C14.8694 5.71429 12.6893 6.61734 11.0818 8.2248C9.47435 9.83225 8.57129 12.0124 8.57129 14.2857V71.4286C8.57129 73.7019 9.47435 75.882 11.0818 77.4895C12.6893 79.0969 14.8694 80 17.1427 80H62.857C65.1303 80 67.3105 79.0969 68.9179 77.4895C70.5254 75.882 71.4284 73.7019 71.4284 71.4286V14.2857C71.4284 12.0124 70.5254 9.83225 68.9179 8.2248C67.3105 6.61734 65.1303 5.71429 62.857 5.71429H59.9999V8.57143C59.9999 11.6025 58.7958 14.5094 56.6525 16.6526C54.5092 18.7959 51.6023 20 48.5713 20H31.4284C28.3974 20 25.4905 18.7959 23.3472 16.6526C21.2039 14.5094 19.9999 11.6025 19.9999 8.57143V5.71429ZM25.9256 37.5371C25.8954 36.9489 25.9852 36.3606 26.1895 35.8081C26.3938 35.2556 26.7084 34.7504 27.1141 34.3233C27.5198 33.8963 28.0082 33.5562 28.5495 33.3238C29.0907 33.0914 29.6737 32.9716 30.2627 32.9716C30.8518 32.9716 31.4347 33.0914 31.976 33.3238C32.5173 33.5562 33.0056 33.8963 33.4113 34.3233C33.817 34.7504 34.1316 35.2556 34.336 35.8081C34.5403 36.3606 34.6301 36.9489 34.5999 37.5371C34.5428 38.6489 34.0609 39.6963 33.2538 40.4631C32.4467 41.2298 31.376 41.6573 30.2627 41.6573C29.1495 41.6573 28.0787 41.2298 27.2716 40.4631C26.4645 39.6963 25.9827 38.6489 25.9256 37.5371ZM30.2627 26.0514C27.2165 26.0514 24.2951 27.2615 22.1411 29.4155C19.9871 31.5695 18.777 34.4909 18.777 37.5371C18.777 40.5833 19.9871 43.5048 22.1411 45.6588C24.2951 47.8128 27.2165 49.0229 30.2627 49.0229C33.3089 49.0229 36.2304 47.8128 38.3843 45.6588C40.5383 43.5048 41.7484 40.5833 41.7484 37.5371C41.7484 34.4909 40.5383 31.5695 38.3843 29.4155C36.2304 27.2615 33.3089 26.0514 30.2627 26.0514ZM59.4056 50.8057C59.7373 51.1374 60.0005 51.5311 60.18 51.9645C60.3595 52.3979 60.452 52.8623 60.452 53.3314C60.452 53.8005 60.3595 54.265 60.18 54.6984C60.0005 55.1317 59.7373 55.5255 59.4056 55.8571L54.777 60.48L59.3941 65.0914C59.7258 65.4231 59.9889 65.8169 60.1684 66.2502C60.3479 66.6836 60.4403 67.1481 60.4403 67.6171C60.4403 68.0862 60.3479 68.5507 60.1684 68.984C59.9889 69.4174 59.7258 69.8112 59.3941 70.1429C59.0625 70.4745 58.6687 70.7376 58.2353 70.9171C57.802 71.0966 57.3375 71.189 56.8684 71.189C56.3994 71.189 55.9349 71.0966 55.5015 70.9171C55.0682 70.7376 54.6744 70.4745 54.3427 70.1429L49.7313 65.5257L45.1199 70.1429C44.7882 70.4745 44.3944 70.7376 43.9611 70.9171C43.5277 71.0966 43.0632 71.189 42.5941 71.189C42.1251 71.189 41.6606 71.0966 41.2272 70.9171C40.7939 70.7376 40.4001 70.4745 40.0684 70.1429C39.7368 69.8112 39.4736 69.4174 39.2941 68.984C39.1146 68.5507 39.0222 68.0862 39.0222 67.6171C39.0222 67.1481 39.1146 66.6836 39.2941 66.2502C39.4736 65.8169 39.7368 65.4231 40.0684 65.0914L44.6799 60.48L40.057 55.8514C39.7095 55.5234 39.4313 55.129 39.239 54.6916C39.0467 54.2541 38.9441 53.7825 38.9373 53.3047C38.9306 52.8269 39.0197 52.3526 39.1996 51.9099C39.3795 51.4672 39.6464 51.0651 39.9844 50.7274C40.3225 50.3896 40.7249 50.1232 41.1679 49.9439C41.6108 49.7645 42.0852 49.6758 42.563 49.6832C43.0408 49.6905 43.5123 49.7936 43.9495 49.9864C44.3867 50.1792 44.7808 50.4578 45.1084 50.8057L49.7313 55.4286L54.3541 50.8C54.6858 50.4683 55.0795 50.2051 55.5129 50.0256C55.9463 49.846 56.4108 49.7536 56.8799 49.7536C57.3489 49.7536 57.8134 49.846 58.2468 50.0256C58.6802 50.2051 59.0739 50.474 59.4056 50.8057Z" fill="black"/>
</g>
<defs>
<clipPath id="clip0_81_61">
<rect width="80" height="80" fill="white"/>
</clipPath>
</defs>
</svg>
